#N canvas 0 0 1904 986 10;
#X obj 660 200 phasor~ 997;
#X obj 390 50 vsl 15 128 0 1 0 0 empty empty Wiggle\ Freq 0 -9 0 10
#fcfcfc #000000 #000000 5400 1;
#X obj 470 40 vsl 15 128 0 1 0 0 empty empty Wiggle\ Amp 0 -9 0 10
#fcfcfc #000000 #000000 2700 1;
#X obj 560 40 vsl 15 128 -5 5 0 0 empty empty Wiggle\ LFO 0 -9 0 10
#fcfcfc #000000 #000000 7000 1;
#X obj 800 690 dac~;
#N canvas 0 0 450 300 circle~ 0;
#X obj 120 80 sin~;
#X obj 40 80 cos~;
#X obj 13 26 inlet~;
#X obj 13 150 outlet~;
#X obj 75 150 outlet~;
#X connect 0 0 4 0;
#X connect 1 0 3 0;
#X connect 2 0 1 0;
#X connect 2 0 0 0;
#X restore 700 430 pd circle~;
#N canvas 953 0 958 1018 ghost~ 0;
#N canvas 438 321 450 325 square~ 0;
#X obj 230 0 inlet~;
#X obj 170 270 outlet~;
#X obj 270 270 outlet~;
#X obj 170 110 *~ 8;
#X obj 170 80 -~ 0.375;
#X obj 170 140 abs~;
#X obj 170 190 min~ 1;
#X obj 170 220 max~ -1;
#X obj 170 170 -~ 2;
#X obj 270 110 *~ 8;
#X obj 270 140 abs~;
#X obj 270 190 min~ 1;
#X obj 270 220 max~ -1;
#X obj 270 170 -~ 2;
#X obj 270 80 -~ 0.625;
#X connect 0 0 4 0;
#X connect 0 0 14 0;
#X connect 3 0 5 0;
#X connect 4 0 3 0;
#X connect 5 0 8 0;
#X connect 6 0 7 0;
#X connect 7 0 1 0;
#X connect 8 0 6 0;
#X connect 9 0 10 0;
#X connect 10 0 13 0;
#X connect 11 0 12 0;
#X connect 12 0 2 0;
#X connect 13 0 11 0;
#X connect 14 0 9 0;
#X restore 421 -621 pd square~;
#X obj 221 -581 pow~ 2;
#X obj 191 -541 -~;
#X msg 171 -581 1;
#X obj 191 -511 sqrt~, f 7;
#X obj 531 -521 +~, f 2;
#X obj 201 -661 *~ 8;
#X obj 201 -621 -~ 1;
#X obj 211 -241 clip~ 0 1;
#X obj 211 -331 wrap~;
#X obj 211 -191 *~ -2;
#X obj 171 -131 +~;
#X obj 211 -281 -~ 0.5;
#X obj 211 -371 *~ 16;
#X obj 281 -241 >~ 0.5;
#X obj 331 -241 <~ 0.75;
#X obj 301 -191 *~;
#X obj 261 -101 *~;
#X obj 541 -471 +~;
#X obj 150 -700 loadbang;
#X obj 448 -504 +~;
#X obj 621 -431 sin~;
#X obj 621 -481 *~;
#X obj 611 -391 *~;
#X obj 691 -531 phasor~;
#X obj 663 -454 +~;
#X obj 320 -660 inlet~;
#X text 370 -660 clock in;
#X obj 430 0 outlet~;
#X obj 490 0 outlet~;
#X obj 740 -600 inlet;
#X text 790 -600 wave speed (-5 to 5 is good);
#X obj 660 -630 inlet;
#X text 710 -630 wave amplitude;
#X obj 580 -670 inlet;
#X text 620 -670 wave frequency;
#X connect 0 0 20 0;
#X connect 0 1 5 1;
#X connect 1 0 2 1;
#X connect 2 0 4 0;
#X connect 3 0 2 0;
#X connect 4 0 5 0;
#X connect 5 0 18 1;
#X connect 6 0 7 0;
#X connect 7 0 1 0;
#X connect 8 0 10 0;
#X connect 9 0 11 0;
#X connect 9 0 12 0;
#X connect 10 0 11 1;
#X connect 11 0 17 0;
#X connect 12 0 8 0;
#X connect 13 0 9 0;
#X connect 14 0 16 0;
#X connect 15 0 16 1;
#X connect 16 0 17 1;
#X connect 17 0 18 0;
#X connect 18 0 22 0;
#X connect 18 0 29 0;
#X connect 19 0 3 0;
#X connect 20 0 28 0;
#X connect 21 0 23 0;
#X connect 22 0 25 0;
#X connect 23 0 20 1;
#X connect 24 0 25 1;
#X connect 25 0 21 0;
#X connect 26 0 6 0;
#X connect 26 0 13 0;
#X connect 26 0 14 0;
#X connect 26 0 15 0;
#X connect 26 0 0 0;
#X connect 30 0 24 0;
#X connect 32 0 23 1;
#X connect 34 0 22 1;
#X restore 440 220 pd ghost~;
#N canvas 600 109 450 325 combine~ 0;
#X obj 60 70 inlet~;
#X obj 130 50 inlet;
#X obj 50 290 outlet~;
#X obj 120 290 outlet~;
#X obj 190 290 outlet~;
#X obj 260 290 outlet~;
#X obj 60 180 *~;
#X obj 120 130 divide 1 1;
#X obj 120 90 minus 1 0;
#X obj 190 210 <~ 1;
#X obj 260 210 >~ 1;
#X obj 60 220 wrap~;
#X text 190 50 0.25;
#X text 190 90 0.75;
#X text 190 130 1.33;
#X obj 230 160 - 1;
#X obj 330 180 divide 1 1;
#X obj 340 230 *~;
#X obj 330 260 *~;
#X obj 135 219 -~ 1;
#X obj 50 250 *~;
#X connect 0 0 6 0;
#X connect 1 0 8 1;
#X connect 6 0 9 0;
#X connect 6 0 10 0;
#X connect 6 0 11 0;
#X connect 6 0 19 0;
#X connect 7 0 6 1;
#X connect 7 0 15 0;
#X connect 8 0 7 1;
#X connect 9 0 4 0;
#X connect 9 0 20 1;
#X connect 10 0 5 0;
#X connect 10 0 17 0;
#X connect 11 0 20 0;
#X connect 15 0 16 1;
#X connect 16 0 17 1;
#X connect 17 0 18 0;
#X connect 18 0 3 0;
#X connect 19 0 18 1;
#X connect 20 0 2 0;
#X restore 670 320 pd combine~;
#X obj 760 130 vsl 15 128 0 1 0 0 empty empty Ghost/Eye\ Mix 0 -9 0
10 #fcfcfc #000000 #000000 2100 1;
#N canvas 0 0 450 300 stereoadd~ 0;
#X obj 200 120 inlet~;
#X obj 250 120 inlet~;
#X obj 300 120 inlet~;
#X obj 350 120 inlet~;
#X obj 240 210 outlet~;
#X obj 300 210 outlet~;
#X obj 253 165 +~;
#X obj 300 170 +~;
#X connect 0 0 6 0;
#X connect 1 0 7 0;
#X connect 2 0 6 1;
#X connect 3 0 7 1;
#X connect 6 0 4 0;
#X connect 7 0 5 0;
#X restore 640 550 pd stereoadd~;
#N canvas 0 0 450 300 stereoscale~ 0;
#X obj 150 100 inlet~;
#X obj 190 150 *~, f 4;
#X obj 260 100 inlet~;
#X obj 200 100 inlet~;
#X obj 260 160 *~, f 4;
#X obj 150 240 outlet~;
#X obj 260 230 outlet~;
#X obj 320 100 inlet~;
#X connect 0 0 1 0;
#X connect 1 0 5 0;
#X connect 2 0 1 1;
#X connect 3 0 4 0;
#X connect 4 0 6 0;
#X connect 7 0 4 1;
#X restore 590 440 pd stereoscale~;
#N canvas 0 0 450 300 duper~ 0;
#X obj 110 90 inlet~;
#X obj 160 90 inlet~;
#X obj 230 90 inlet~;
#X obj 280 90 inlet~;
#X obj 40 90 inlet~;
#X obj 30 120 >~ 0.5;
#X obj 170 130 <~ 0.5;
#X obj 90 180 *~;
#X obj 120 180 *~;
#X obj 240 170 *~;
#X obj 270 170 *~;
#X obj 170 230 +~;
#X obj 220 230 +~;
#X obj 160 270 outlet~;
#X obj 220 270 outlet~;
#X connect 0 0 7 0;
#X connect 1 0 8 0;
#X connect 2 0 9 0;
#X connect 3 0 10 0;
#X connect 4 0 5 0;
#X connect 4 0 6 0;
#X connect 5 0 7 1;
#X connect 5 0 8 1;
#X connect 6 0 9 1;
#X connect 6 0 10 1;
#X connect 7 0 11 0;
#X connect 8 0 12 0;
#X connect 9 0 11 1;
#X connect 10 0 12 1;
#X connect 11 0 13 0;
#X connect 12 0 14 0;
#X restore 870 400 pd duper~;
#X obj 860 180 vsl 15 128 0 1 0 0 empty empty Eye\ Size 0 -9 0 10 #fcfcfc
#000000 #000000 2500 1;
#X obj 690 380 wrap~;
#X obj 690 350 *~ 2;
#X obj 930 350 * -1;
#X obj 950 240 loadbang;
#N canvas 0 0 450 300 stereoscale~ 0;
#X obj 150 100 inlet~;
#X obj 190 150 *~, f 4;
#X obj 260 100 inlet~;
#X obj 200 100 inlet~;
#X obj 260 160 *~, f 4;
#X obj 150 240 outlet~;
#X obj 260 230 outlet~;
#X obj 320 100 inlet~;
#X connect 0 0 1 0;
#X connect 1 0 5 0;
#X connect 2 0 1 1;
#X connect 3 0 4 0;
#X connect 4 0 6 0;
#X connect 7 0 4 1;
#X restore 780 600 pd stereoscale~;
#X obj 990 430 vsl 15 128 0 1 0 0 empty empty Base\ Amp 0 -9 0 10 #fcfcfc
#000000 #000000 0 1;
#X obj 660 10 vsl 15 128 0 1000 0 0 empty empty Base\ Freq 0 -9 0 10
#fcfcfc #000000 #000000 550 1;
#X floatatom 860 350 5 0 0 0 - - -, f 5;
#X obj 790 230 metro 100;
#X obj 790 260 random 100;
#X obj 790 290 > 10;
#N canvas 0 0 450 300 stereoscale~ 0;
#X obj 150 100 inlet~;
#X obj 190 150 *~, f 4;
#X obj 260 100 inlet~;
#X obj 200 100 inlet~;
#X obj 260 160 *~, f 4;
#X obj 150 240 outlet~;
#X obj 260 230 outlet~;
#X obj 320 100 inlet~;
#X connect 0 0 1 0;
#X connect 1 0 5 0;
#X connect 2 0 1 1;
#X connect 3 0 4 0;
#X connect 4 0 6 0;
#X connect 7 0 4 1;
#X restore 700 520 pd stereoscale~;
#N canvas 0 0 450 300 stereoscale~ 0;
#X obj 150 100 inlet~;
#X obj 190 150 *~, f 4;
#X obj 260 100 inlet~;
#X obj 200 100 inlet~;
#X obj 260 160 *~, f 4;
#X obj 150 240 outlet~;
#X obj 260 230 outlet~;
#X obj 320 100 inlet~;
#X connect 0 0 1 0;
#X connect 1 0 5 0;
#X connect 2 0 1 1;
#X connect 3 0 4 0;
#X connect 4 0 6 0;
#X connect 7 0 4 1;
#X restore 700 460 pd stereoscale~;
#N canvas 0 0 450 300 stereoadd~ 0;
#X obj 200 120 inlet~;
#X obj 250 120 inlet~;
#X obj 300 120 inlet~;
#X obj 350 120 inlet~;
#X obj 240 210 outlet~;
#X obj 300 210 outlet~;
#X obj 253 165 +~;
#X obj 300 170 +~;
#X connect 0 0 6 0;
#X connect 1 0 7 0;
#X connect 2 0 6 1;
#X connect 3 0 7 1;
#X connect 6 0 4 0;
#X connect 7 0 5 0;
#X restore 710 490 pd stereoadd~;
#X msg 970 290 0.75;
#X msg 930 290 0.4;
#X obj 790 330 multi 1 1;
#X obj 790 200 loadbang;
#X obj 980 50 vsl 15 128 0 500 0 0 empty empty Blink\ Freq 0 -9 0 10
#fcfcfc #000000 #000000 3800 1;
#X obj 50 120 ctlin 14 1;
#X obj 50 150 maxlib/scale 0 127 0 1;
#X obj 200 150 maxlib/scale 0 127 0 1;
#X obj 200 120 ctlin 15 1;
#X obj 50 190 ctlin 16 1;
#X obj 50 220 maxlib/scale 0 127 -5 5;
#X obj 200 190 ctlin 17 1;
#X obj 200 220 maxlib/scale 0 127 0 500;
#X obj 50 300 maxlib/scale 0 127 0 1;
#X obj 50 270 ctlin 18 1;
#X obj 210 300 maxlib/scale 0 127 0 1;
#X obj 210 270 ctlin 19 1;
#X obj 60 340 ctlin 20 1;
#X obj 60 370 maxlib/scale 0 127 0 500;
#X obj 230 370 maxlib/scale 0 127 0 1;
#X obj 230 340 ctlin 21 1;
#X connect 0 0 7 0;
#X connect 1 0 6 1;
#X connect 2 0 6 2;
#X connect 3 0 6 3;
#X connect 5 0 25 0;
#X connect 5 1 25 1;
#X connect 6 0 10 0;
#X connect 6 1 10 1;
#X connect 7 0 6 0;
#X connect 7 1 14 0;
#X connect 7 1 11 0;
#X connect 7 2 10 2;
#X connect 7 2 10 3;
#X connect 7 3 24 2;
#X connect 7 3 24 3;
#X connect 8 0 7 1;
#X connect 9 0 17 0;
#X connect 9 1 17 1;
#X connect 10 0 9 0;
#X connect 10 1 9 1;
#X connect 11 0 26 2;
#X connect 11 1 26 3;
#X connect 12 0 20 0;
#X connect 12 0 29 1;
#X connect 12 0 25 2;
#X connect 13 0 5 0;
#X connect 14 0 13 0;
#X connect 15 0 11 3;
#X connect 16 0 28 0;
#X connect 16 0 27 0;
#X connect 17 0 4 0;
#X connect 17 1 4 1;
#X connect 18 0 17 2;
#X connect 18 0 17 3;
#X connect 19 0 0 0;
#X connect 21 0 22 0;
#X connect 22 0 23 0;
#X connect 23 0 29 0;
#X connect 24 0 9 2;
#X connect 24 1 9 3;
#X connect 25 0 26 0;
#X connect 25 1 26 1;
#X connect 26 0 24 0;
#X connect 26 1 24 1;
#X connect 27 0 11 2;
#X connect 27 0 11 4;
#X connect 28 0 11 1;
#X connect 28 0 15 0;
#X connect 29 0 25 3;
#X connect 30 0 21 0;
#X connect 31 0 21 1;
#X connect 32 0 33 0;
#X connect 33 0 1 0;
#X connect 34 0 2 0;
#X connect 35 0 34 0;
#X connect 36 0 37 0;
#X connect 37 0 3 0;
#X connect 38 0 39 0;
#X connect 39 0 19 0;
#X connect 40 0 8 0;
#X connect 41 0 40 0;
#X connect 42 0 12 0;
#X connect 43 0 42 0;
#X connect 44 0 45 0;
#X connect 45 0 31 0;
#X connect 46 0 18 0;
#X connect 47 0 46 0;
